<svg xmlns="http://www.w3.org/2000/svg" xmlns:xlink="http://www.w3.org/1999/xlink" width="500" zoomAndPan="magnify" viewBox="0 0 375 374.999991" height="500" preserveAspectRatio="xMidYMid meet" version="1.0"><defs><g/><clipPath id="8cbdac6756"><path d="M 122.332031 97.945312 L 252.832031 97.945312 L 252.832031 205.945312 L 122.332031 205.945312 Z M 122.332031 97.945312 " clip-rule="nonzero"/></clipPath></defs><g fill="#ff66c4" fill-opacity="1"><g transform="translate(111.096113, 240.005727)"><g><path d="M 10.421875 0.296875 C 7.753906 0.296875 5.640625 -0.441406 4.078125 -1.921875 C 2.515625 -3.410156 1.734375 -5.398438 1.734375 -7.890625 C 1.734375 -8.546875 1.757812 -9.039062 1.8125 -9.375 L 2.765625 -17.109375 C 2.984375 -19.023438 3.585938 -20.707031 4.578125 -22.15625 C 5.578125 -23.601562 6.867188 -24.726562 8.453125 -25.53125 C 10.046875 -26.34375 11.8125 -26.75 13.75 -26.75 C 15.539062 -26.75 17.101562 -26.414062 18.4375 -25.75 C 19.769531 -25.082031 20.796875 -24.164062 21.515625 -23 C 22.234375 -21.84375 22.59375 -20.550781 22.59375 -19.125 C 22.59375 -18.894531 22.566406 -18.523438 22.515625 -18.015625 C 22.492188 -17.816406 22.410156 -17.660156 22.265625 -17.546875 C 22.128906 -17.429688 21.960938 -17.375 21.765625 -17.375 L 17 -17.375 C 16.570312 -17.375 16.367188 -17.453125 16.390625 -17.609375 L 16.390625 -17.828125 C 16.421875 -17.929688 16.4375 -18.082031 16.4375 -18.28125 C 16.4375 -19.164062 16.144531 -19.90625 15.5625 -20.5 C 14.988281 -21.09375 14.171875 -21.390625 13.109375 -21.390625 C 12.003906 -21.390625 11.0625 -21.007812 10.28125 -20.25 C 9.5 -19.5 9.03125 -18.515625 8.875 -17.296875 L 7.859375 -9.1875 C 7.835938 -9.050781 7.828125 -8.847656 7.828125 -8.578125 C 7.828125 -7.546875 8.160156 -6.707031 8.828125 -6.0625 C 9.492188 -5.414062 10.34375 -5.09375 11.375 -5.09375 C 12.457031 -5.09375 13.363281 -5.390625 14.09375 -5.984375 C 14.820312 -6.578125 15.25 -7.40625 15.375 -8.46875 L 15.484375 -9.4375 C 15.484375 -9.613281 15.410156 -9.703125 15.265625 -9.703125 L 11.90625 -9.703125 C 11.695312 -9.703125 11.539062 -9.765625 11.4375 -9.890625 C 11.34375 -10.023438 11.304688 -10.191406 11.328125 -10.390625 L 11.78125 -14.09375 C 11.8125 -14.289062 11.890625 -14.453125 12.015625 -14.578125 C 12.140625 -14.703125 12.300781 -14.765625 12.5 -14.765625 L 21.453125 -14.765625 C 21.660156 -14.765625 21.8125 -14.703125 21.90625 -14.578125 C 22.007812 -14.453125 22.050781 -14.289062 22.03125 -14.09375 L 21.421875 -9.1875 C 21.191406 -7.289062 20.585938 -5.625 19.609375 -4.1875 C 18.628906 -2.757812 17.34375 -1.65625 15.75 -0.875 C 14.164062 -0.09375 12.390625 0.296875 10.421875 0.296875 Z M 10.421875 0.296875 "/></g></g></g><g fill="#ff66c4" fill-opacity="1"><g transform="translate(133.380184, 240.005727)"><g><path d="M 21.953125 -21.765625 C 21.921875 -21.554688 21.835938 -21.390625 21.703125 -21.265625 C 21.566406 -21.140625 21.394531 -21.078125 21.1875 -21.078125 L 9.96875 -21.078125 C 9.925781 -21.078125 9.867188 -21.050781 9.796875 -21 C 9.734375 -20.957031 9.703125 -20.894531 9.703125 -20.8125 L 9.140625 -16.328125 C 9.140625 -16.148438 9.21875 -16.0625 9.375 -16.0625 L 16.4375 -16.0625 C 16.632812 -16.0625 16.789062 -15.992188 16.90625 -15.859375 C 17.019531 -15.734375 17.066406 -15.570312 17.046875 -15.375 L 16.546875 -11.40625 C 16.472656 -10.957031 16.222656 -10.734375 15.796875 -10.734375 L 8.734375 -10.734375 C 8.578125 -10.734375 8.472656 -10.644531 8.421875 -10.46875 L 7.828125 -5.625 C 7.828125 -5.445312 7.898438 -5.359375 8.046875 -5.359375 L 19.265625 -5.359375 C 19.472656 -5.359375 19.625 -5.296875 19.71875 -5.171875 C 19.820312 -5.046875 19.859375 -4.882812 19.828125 -4.6875 L 19.34375 -0.6875 C 19.320312 -0.476562 19.242188 -0.3125 19.109375 -0.1875 C 18.984375 -0.0625 18.820312 0 18.625 0 L 1.734375 0 C 1.535156 0 1.378906 -0.0625 1.265625 -0.1875 C 1.148438 -0.3125 1.109375 -0.476562 1.140625 -0.6875 L 4.234375 -25.765625 C 4.253906 -25.960938 4.332031 -26.125 4.46875 -26.25 C 4.613281 -26.382812 4.785156 -26.453125 4.984375 -26.453125 L 21.875 -26.453125 C 22.070312 -26.453125 22.222656 -26.382812 22.328125 -26.25 C 22.429688 -26.125 22.46875 -25.960938 22.4375 -25.765625 Z M 21.953125 -21.765625 "/></g></g></g><g fill="#ff66c4" fill-opacity="1"><g transform="translate(154.531165, 240.005727)"><g><path d="M 22.625 -26.453125 C 22.832031 -26.453125 22.984375 -26.382812 23.078125 -26.25 C 23.179688 -26.125 23.222656 -25.960938 23.203125 -25.765625 L 22.703125 -21.71875 C 22.679688 -21.519531 22.609375 -21.359375 22.484375 -21.234375 C 22.359375 -21.109375 22.191406 -21.046875 21.984375 -21.046875 L 15.875 -21.046875 C 15.789062 -21.046875 15.71875 -21.019531 15.65625 -20.96875 C 15.59375 -20.914062 15.5625 -20.851562 15.5625 -20.78125 L 13.109375 -0.6875 C 13.035156 -0.226562 12.785156 0 12.359375 0 L 7.59375 0 C 7.394531 0 7.242188 -0.0625 7.140625 -0.1875 C 7.035156 -0.3125 7 -0.476562 7.03125 -0.6875 L 9.484375 -20.78125 C 9.484375 -20.957031 9.40625 -21.046875 9.25 -21.046875 L 3.359375 -21.046875 C 3.160156 -21.046875 3.007812 -21.109375 2.90625 -21.234375 C 2.8125 -21.359375 2.773438 -21.519531 2.796875 -21.71875 L 3.28125 -25.765625 C 3.3125 -25.960938 3.390625 -26.125 3.515625 -26.25 C 3.640625 -26.382812 3.800781 -26.453125 4 -26.453125 Z M 22.625 -26.453125 "/></g></g></g><g fill="#ff66c4" fill-opacity="1"><g transform="translate(176.135389, 240.005727)"><g><path d="M 22.625 -26.453125 C 22.832031 -26.453125 22.984375 -26.382812 23.078125 -26.25 C 23.179688 -26.125 23.222656 -25.960938 23.203125 -25.765625 L 22.703125 -21.71875 C 22.679688 -21.519531 22.609375 -21.359375 22.484375 -21.234375 C 22.359375 -21.109375 22.191406 -21.046875 21.984375 -21.046875 L 15.875 -21.046875 C 15.789062 -21.046875 15.71875 -21.019531 15.65625 -20.96875 C 15.59375 -20.914062 15.5625 -20.851562 15.5625 -20.78125 L 13.109375 -0.6875 C 13.035156 -0.226562 12.785156 0 12.359375 0 L 7.59375 0 C 7.394531 0 7.242188 -0.0625 7.140625 -0.1875 C 7.035156 -0.3125 7 -0.476562 7.03125 -0.6875 L 9.484375 -20.78125 C 9.484375 -20.957031 9.40625 -21.046875 9.25 -21.046875 L 3.359375 -21.046875 C 3.160156 -21.046875 3.007812 -21.109375 2.90625 -21.234375 C 2.8125 -21.359375 2.773438 -21.519531 2.796875 -21.71875 L 3.28125 -25.765625 C 3.3125 -25.960938 3.390625 -26.125 3.515625 -26.25 C 3.640625 -26.382812 3.800781 -26.453125 4 -26.453125 Z M 22.625 -26.453125 "/></g></g></g><g fill="#ff66c4" fill-opacity="1"><g transform="translate(197.739613, 240.005727)"><g><path d="M 21.953125 -21.765625 C 21.921875 -21.554688 21.835938 -21.390625 21.703125 -21.265625 C 21.566406 -21.140625 21.394531 -21.078125 21.1875 -21.078125 L 9.96875 -21.078125 C 9.925781 -21.078125 9.867188 -21.050781 9.796875 -21 C 9.734375 -20.957031 9.703125 -20.894531 9.703125 -20.8125 L 9.140625 -16.328125 C 9.140625 -16.148438 9.21875 -16.0625 9.375 -16.0625 L 16.4375 -16.0625 C 16.632812 -16.0625 16.789062 -15.992188 16.90625 -15.859375 C 17.019531 -15.734375 17.066406 -15.570312 17.046875 -15.375 L 16.546875 -11.40625 C 16.472656 -10.957031 16.222656 -10.734375 15.796875 -10.734375 L 8.734375 -10.734375 C 8.578125 -10.734375 8.472656 -10.644531 8.421875 -10.46875 L 7.828125 -5.625 C 7.828125 -5.445312 7.898438 -5.359375 8.046875 -5.359375 L 19.265625 -5.359375 C 19.472656 -5.359375 19.625 -5.296875 19.71875 -5.171875 C 19.820312 -5.046875 19.859375 -4.882812 19.828125 -4.6875 L 19.34375 -0.6875 C 19.320312 -0.476562 19.242188 -0.3125 19.109375 -0.1875 C 18.984375 -0.0625 18.820312 0 18.625 0 L 1.734375 0 C 1.535156 0 1.378906 -0.0625 1.265625 -0.1875 C 1.148438 -0.3125 1.109375 -0.476562 1.140625 -0.6875 L 4.234375 -25.765625 C 4.253906 -25.960938 4.332031 -26.125 4.46875 -26.25 C 4.613281 -26.382812 4.785156 -26.453125 4.984375 -26.453125 L 21.875 -26.453125 C 22.070312 -26.453125 22.222656 -26.382812 22.328125 -26.25 C 22.429688 -26.125 22.46875 -25.960938 22.4375 -25.765625 Z M 21.953125 -21.765625 "/></g></g></g><g fill="#ff66c4" fill-opacity="1"><g transform="translate(218.890593, 240.005727)"><g><path d="M 10.421875 0.296875 C 7.734375 0.296875 5.609375 -0.429688 4.046875 -1.890625 C 2.484375 -3.347656 1.703125 -5.3125 1.703125 -7.78125 C 1.703125 -8.382812 1.726562 -8.851562 1.78125 -9.1875 L 2.796875 -17.34375 C 3.023438 -19.207031 3.628906 -20.847656 4.609375 -22.265625 C 5.585938 -23.691406 6.867188 -24.796875 8.453125 -25.578125 C 10.046875 -26.359375 11.8125 -26.75 13.75 -26.75 C 16.46875 -26.75 18.613281 -26.0625 20.1875 -24.6875 C 21.769531 -23.3125 22.5625 -21.457031 22.5625 -19.125 C 22.5625 -18.863281 22.535156 -18.429688 22.484375 -17.828125 C 22.484375 -17.609375 22.253906 -17.472656 21.796875 -17.421875 L 17 -17.078125 L 16.84375 -17.078125 C 16.5 -17.078125 16.328125 -17.140625 16.328125 -17.265625 L 16.359375 -17.5 C 16.378906 -17.644531 16.390625 -17.859375 16.390625 -18.140625 C 16.390625 -19.140625 16.09375 -19.929688 15.5 -20.515625 C 14.914062 -21.097656 14.117188 -21.390625 13.109375 -21.390625 C 12.003906 -21.390625 11.0625 -21.03125 10.28125 -20.3125 C 9.5 -19.59375 9.03125 -18.65625 8.875 -17.5 L 7.828125 -8.921875 C 7.796875 -8.796875 7.78125 -8.601562 7.78125 -8.34375 C 7.78125 -7.34375 8.082031 -6.546875 8.6875 -5.953125 C 9.289062 -5.359375 10.097656 -5.0625 11.109375 -5.0625 C 12.242188 -5.0625 13.191406 -5.410156 13.953125 -6.109375 C 14.722656 -6.816406 15.171875 -7.753906 15.296875 -8.921875 C 15.328125 -9.046875 15.40625 -9.148438 15.53125 -9.234375 C 15.65625 -9.328125 15.816406 -9.359375 16.015625 -9.328125 L 20.78125 -9.0625 C 21.207031 -9.007812 21.410156 -8.945312 21.390625 -8.875 L 21.390625 -8.6875 C 21.160156 -6.894531 20.550781 -5.316406 19.5625 -3.953125 C 18.582031 -2.597656 17.304688 -1.550781 15.734375 -0.8125 C 14.160156 -0.0703125 12.390625 0.296875 10.421875 0.296875 Z M 10.421875 0.296875 "/></g></g></g><g fill="#ff66c4" fill-opacity="1"><g transform="translate(241.21243, 240.005727)"><g><path d="M 17.53125 -25.765625 C 17.550781 -25.960938 17.628906 -26.125 17.765625 -26.25 C 17.910156 -26.382812 18.082031 -26.453125 18.28125 -26.453125 L 23.046875 -26.453125 C 23.242188 -26.453125 23.394531 -26.382812 23.5 -26.25 C 23.601562 -26.125 23.640625 -25.960938 23.609375 -25.765625 L 20.515625 -0.6875 C 20.492188 -0.476562 20.414062 -0.3125 20.28125 -0.1875 C 20.15625 -0.0625 19.992188 0 19.796875 0 L 15.03125 0 C 14.832031 0 14.675781 -0.0625 14.5625 -0.1875 C 14.445312 -0.3125 14.40625 -0.476562 14.4375 -0.6875 L 15.640625 -10.421875 L 15.640625 -10.5 C 15.640625 -10.625 15.566406 -10.6875 15.421875 -10.6875 L 8.734375 -10.6875 C 8.578125 -10.6875 8.472656 -10.597656 8.421875 -10.421875 L 7.21875 -0.6875 C 7.1875 -0.476562 7.109375 -0.3125 6.984375 -0.1875 C 6.859375 -0.0625 6.695312 0 6.5 0 L 1.734375 0 C 1.535156 0 1.378906 -0.0625 1.265625 -0.1875 C 1.148438 -0.3125 1.109375 -0.476562 1.140625 -0.6875 L 4.234375 -25.765625 C 4.253906 -25.960938 4.332031 -26.125 4.46875 -26.25 C 4.613281 -26.382812 4.785156 -26.453125 4.984375 -26.453125 L 9.75 -26.453125 C 9.945312 -26.453125 10.097656 -26.382812 10.203125 -26.25 C 10.304688 -26.125 10.34375 -25.960938 10.3125 -25.765625 L 9.140625 -16.328125 C 9.140625 -16.148438 9.21875 -16.0625 9.375 -16.0625 L 16.09375 -16.0625 C 16.269531 -16.0625 16.359375 -16.148438 16.359375 -16.328125 Z M 17.53125 -25.765625 "/></g></g></g><g clip-path="url(#8cbdac6756)"><path fill="#ff66c4" d="M 186.710938 129.804688 L 186.710938 197.992188 L 197.734375 190.976562 L 197.734375 136.847656 L 202.078125 136.847656 L 202.078125 193.367188 L 182.371094 205.914062 L 182.371094 125.453125 L 239.050781 125.453125 L 245.265625 114.804688 L 184.527344 114.804688 L 184.527344 110.457031 L 252.84375 110.457031 L 241.546875 129.804688 Z M 137.910156 102.324219 L 232.664062 102.324219 L 227.882812 97.976562 L 135.449219 97.976562 L 122.332031 120.03125 L 166.4375 120.03125 L 166.4375 194.707031 L 170.78125 199.085938 L 170.78125 115.675781 L 129.972656 115.675781 Z M 137.910156 102.324219 " fill-opacity="1" fill-rule="nonzero"/></g></svg>